<?xml version="1.0" encoding="UTF-8"?><svg xmlns="http://www.w3.org/2000/svg" xmlns:xlink="http://www.w3.org/1999/xlink" width="56.25" zoomAndPan="magnify" viewBox="0 0 56.25 56.249997" height="56.249997" preserveAspectRatio="xMidYMid meet" version="1.0"><defs><clipPath id="clip-0"><path d="M 16.652344 16.652344 L 38.855469 16.652344 L 38.855469 38.855469 L 16.652344 38.855469 Z M 16.652344 16.652344 " clip-rule="nonzero"/></clipPath></defs><g clip-path="url(#clip-0)"><path fill="rgb(92.939758%, 32.939148%, 3.529358%)" d="M 27.753906 38.855469 C 33.878906 38.855469 38.855469 33.878906 38.855469 27.753906 C 38.855469 21.632812 33.878906 16.652344 27.753906 16.652344 C 21.632812 16.652344 16.652344 21.632812 16.652344 27.753906 C 16.652344 33.878906 21.632812 38.855469 27.753906 38.855469 Z M 27.773438 20.816406 L 27.773438 20.988281 C 27.996094 20.988281 28.222656 21.078125 28.378906 21.234375 L 32.648438 25.5 C 32.976562 25.847656 32.976562 26.382812 32.648438 26.730469 L 31.917969 27.460938 C 31.761719 27.617188 31.535156 27.71875 31.3125 27.71875 C 31.085938 27.71875 30.859375 27.632812 30.703125 27.460938 L 29.453125 26.195312 C 29.402344 26.140625 29.332031 26.125 29.265625 26.160156 C 29.195312 26.195312 29.160156 26.246094 29.160156 26.316406 L 29.160156 33.480469 C 29.160156 33.949219 28.761719 34.347656 28.273438 34.347656 L 27.25 34.347656 C 26.785156 34.347656 26.402344 33.964844 26.402344 33.480469 L 26.402344 26.351562 C 26.402344 26.28125 26.367188 26.210938 26.296875 26.195312 C 26.226562 26.160156 26.160156 26.175781 26.105469 26.226562 L 24.894531 27.441406 C 24.738281 27.597656 24.511719 27.703125 24.285156 27.703125 C 24.058594 27.703125 23.835938 27.617188 23.679688 27.441406 L 22.898438 26.714844 C 22.742188 26.558594 22.636719 26.332031 22.636719 26.105469 C 22.636719 25.882812 22.722656 25.65625 22.898438 25.5 L 27.148438 21.25 C 27.304688 21.09375 27.53125 20.988281 27.753906 20.988281 Z M 27.773438 20.816406 " fill-opacity="1" fill-rule="nonzero"/></g></svg>