<?xml version="1.0" encoding="UTF-8"?><svg xmlns="http://www.w3.org/2000/svg" xmlns:xlink="http://www.w3.org/1999/xlink" width="56.25" zoomAndPan="magnify" viewBox="0 0 56.25 56.249997" height="56.249997" preserveAspectRatio="xMidYMid meet" version="1.0"><defs><clipPath id="clip-0"><path d="M 16.652344 16.652344 L 38.855469 16.652344 L 38.855469 38.855469 L 16.652344 38.855469 Z M 16.652344 16.652344 " clip-rule="nonzero"/></clipPath></defs><g clip-path="url(#clip-0)"><path fill="rgb(100%, 8.628845%, 8.628845%)" d="M 27.753906 16.652344 C 21.632812 16.652344 16.652344 21.632812 16.652344 27.753906 C 16.652344 33.878906 21.632812 38.855469 27.753906 38.855469 C 33.878906 38.855469 38.855469 33.878906 38.855469 27.753906 C 38.855469 21.632812 33.878906 16.652344 27.753906 16.652344 Z M 27.738281 34.695312 L 27.738281 34.519531 C 27.511719 34.519531 27.285156 34.433594 27.128906 34.277344 L 22.863281 30.011719 C 22.535156 29.664062 22.535156 29.125 22.863281 28.777344 L 23.589844 28.050781 C 23.746094 27.894531 23.972656 27.789062 24.199219 27.789062 C 24.425781 27.789062 24.648438 27.875 24.804688 28.050781 L 26.054688 29.316406 C 26.105469 29.367188 26.175781 29.386719 26.246094 29.351562 C 26.316406 29.316406 26.351562 29.265625 26.351562 29.195312 L 26.351562 22.03125 C 26.351562 21.5625 26.75 21.164062 27.234375 21.164062 L 28.257812 21.164062 C 28.726562 21.164062 29.109375 21.542969 29.109375 22.03125 L 29.109375 29.160156 C 29.109375 29.230469 29.144531 29.296875 29.210938 29.316406 C 29.28125 29.351562 29.351562 29.332031 29.402344 29.28125 L 30.617188 28.066406 C 30.773438 27.910156 31 27.808594 31.222656 27.808594 C 31.449219 27.808594 31.675781 27.894531 31.832031 28.066406 L 32.613281 28.796875 C 32.769531 28.953125 32.871094 29.175781 32.871094 29.402344 C 32.871094 29.628906 32.785156 29.855469 32.613281 30.011719 L 28.363281 34.261719 C 28.207031 34.417969 27.980469 34.519531 27.753906 34.519531 Z M 27.738281 34.695312 " fill-opacity="1" fill-rule="nonzero"/></g></svg>